<svg xmlns="http://www.w3.org/2000/svg" viewBox="0 0 32 32">
  <rect width="32" height="32" rx="8" fill="#f59e0b"/>
  <g transform="translate(4,4)" fill="none" stroke="white" stroke-width="1.8" stroke-linecap="round" stroke-linejoin="round">
    <path d="M7.848 8.25l1.536.887M7.848 8.25a3 3 0 11-5.196-3 3 3 0 015.196 3zm1.536.887a2.165 2.165 0 011.083 1.839c.005.351.054.695.14 1.024M9.384 9.137l10.062 5.807M9.523 12c.082.33.131.674.137 1.026a2.165 2.165 0 01-1.083 1.838m0 0L7.848 15.75M7.848 15.75a3 3 0 11-5.196 3 3 3 0 015.196-3z"/>
  </g>
</svg>
